<svg width="12" height="12" viewBox="0 0 527 483" fill="none" xmlns="http://www.w3.org/2000/svg"><path fill-rule="evenodd" clip-rule="evenodd" d="M1.5 264.208C1.5 119.17 118.974 1.5 264 1.5s262.5 117.67 262.5 262.708c0 87.697-42.965 165.361-108.872 213.039-10.632 7.691-25.033 4.482-31.944-5.885l-8.926-13.391c-7.059-10.589-3.94-24.354 5.727-31.442 49.941-36.615 82.298-95.678 82.298-162.321 0-111.08-89.944-201.0373-200.783-201.0373-110.839 0-200.7827 89.9573-200.7827 201.0373 0 66.643 32.3569 125.706 82.2977 162.321 9.667 7.088 12.786 20.853 5.727 31.442l-8.926 13.391c-6.911 10.367-21.312 13.576-31.944 5.885C44.4653 429.569 1.5 351.905 1.5 264.208Z" fill="#1ED760"/><path fill-rule="evenodd" clip-rule="evenodd" d="M104.5 263.216c0-88.63 71.28-160.716 159.5-160.716s159.5 72.086 159.5 160.716c0 52.13-24.66 98.491-62.815 127.832-10.415 8.009-24.644 4.612-31.281-5.446l-6.153-9.323c-6.793-10.293-3.599-23.261 5.102-30.159 24.346-19.303 39.954-49.242 39.954-82.904 0-58.304-46.831-105.332-104.307-105.332s-104.307 47.028-104.307 105.332c0 33.662 15.608 63.601 39.954 82.904 8.701 6.898 11.895 19.866 5.102 30.159l-6.153 9.323c-6.637 10.058-20.866 13.455-31.281 5.446-38.155-29.341-62.815-75.702-62.815-127.832Z" fill="#1ED760"/><path fill-rule="evenodd" clip-rule="evenodd" d="M200.5 261c0-34.704 28.618-62.5 63.5-62.5 34.882 0 63.5 27.796 63.5 62.5s-28.618 62.5-63.5 62.5c-34.882 0-63.5-27.796-63.5-62.5Z" fill="#1ED760"/></svg>